<?xml version="1.0" encoding="UTF-8"?>
<!DOCTYPE svg PUBLIC "-//W3C//DTD SVG 1.1//EN" "http://www.w3.org/Graphics/SVG/1.1/DTD/svg11.dtd">
<!-- Creator: CorelDRAW 2020 (64 Bit) -->
<svg xmlns="http://www.w3.org/2000/svg" xml:space="preserve" width="135.47mm" height="74mm" version="1.1" style="shape-rendering:geometricPrecision; text-rendering:geometricPrecision; image-rendering:optimizeQuality; fill-rule:evenodd; clip-rule:evenodd"
viewBox="0 0 13547 7400"
 xmlns:xlink="http://www.w3.org/1999/xlink"
 xmlns:xodm="http://www.corel.com/coreldraw/odm/2003">
 <defs>
  <style type="text/css">
   <![CDATA[
    .fil6 {fill:none}
    .fil1 {fill:#23A6DA}
    .fil0 {fill:#C74720}
    .fil3 {fill:#C74720}
    .fil5 {fill:#D08C75}
    .fil4 {fill:#DDA290}
    .fil2 {fill:#ECF9F5}
   ]]>
  </style>
 </defs>
 <g id="Camada_x0020_1">
  <metadata id="CorelCorpID_0Corel-Layer"/>
  <g id="_2238423341328">
   <path class="fil0" d="M7835.4 6921.04c20.71,26.72 13.54,57.72 13.48,103.87 -0.07,53.53 8.14,85.52 -13.48,112.1 -31.96,-15.51 -19.77,-6.65 -20.45,-103.63l0.58 -93.4c10.47,-29.57 -4.55,-7.01 19.87,-18.94zm-2328.34 103.45c26.07,-6.38 35.94,-10.5 53.24,3.83l14.5 -41.28c23.13,30.03 15.15,85.5 11.58,122.54 -67.12,26.58 -141.27,-18.44 -79.32,-85.09zm682.1 3.83l62.41 -11.46c8.74,8.28 1.1,-20.12 25.39,-31.75 15.4,26.89 10.9,89.66 5.55,129.05l-75.4 3.79c-33.66,-35.8 -26.91,-41.16 -17.95,-89.63zm-15.58 43.76c11.91,55.14 -4.87,30.22 -12.44,37.46 -21.25,3.75 -86.29,25.45 -84.78,-42.45 1.28,-58 81.82,-79.55 97.22,4.99zm455.35 3.63c-6.77,-44.98 37.02,-79.69 57.46,-99.1 20.88,-19.84 57.14,-66.82 91.15,-71.12 49.95,-6.31 78.25,35.27 102.28,58.83 93.47,91.65 96.47,110.59 8.27,196.93 -92.28,90.33 -103.88,87.33 -190.67,2.61 -19.64,-19.16 -63.53,-55.12 -68.49,-88.15zm-281.8 39.82c-3.37,-24.84 -2.95,-40.45 -3.05,-65.19l9.65 -63.67c20.61,15.06 12.28,-6.27 17.82,37.13 44.84,-12.46 83.97,2.79 73.32,57.41 -4.7,24.13 -16.68,34.67 -40.61,36.19l-57.13 -1.87zm1309.11 -7.14c50.09,5.66 40.51,-5.3 62.27,-4.85 15.35,0.31 9.23,1.52 18.54,6.04 -8.21,23.62 -6.45,26.25 -39.19,31.66 -66.63,11 -109.86,-38.49 -95.44,-105.34 18.56,-86.06 152.12,-75.51 145.21,29.18l-109.91 7.59 18.52 35.72zm-299.11 1.19c-31.79,74.79 -155.81,23.35 -135.55,-73.01 18.28,-86.89 152.17,-74.8 145.26,28.07l-109.91 8.21c1.35,23.56 9.69,31.36 29.3,36.03 38.6,9.19 36.16,-16.44 70.9,0.7zm-1578.38 -74.98c42.04,-7.85 3.81,9.85 41.58,-26.01l45.49 15.44c28.4,-11.64 22.08,-0.83 77.93,-4.98 25.93,193.87 -75.6,161.17 -92.11,106.83 34.05,4.97 60.27,34.88 70.14,-16.71 -30.45,12.95 -44.33,15.45 -64.27,-5.75l-22.9 -7.4 -11.25 29.21c-35.39,-21.3 -10,-8.64 -42.76,-17.66 -15.96,14.97 -53.18,28.04 -65.24,-24.55 31.19,8.65 27.71,20.34 50.64,9.63 -25.52,-40.65 -57.63,5.9 -48.1,-68.09l49.5 -7.03c8.15,9.29 5.8,6.57 11.35,17.07zm676.74 -16c38.1,5.95 28.61,29.62 50.61,57.7 7.09,-24.87 8.64,-45.85 33.9,-57.99 14.36,20.42 13.84,7.38 -15.87,75.14 -27.54,62.82 -12.97,56.54 -43.4,68.66 -12.3,-32.17 17.52,-25.25 0.79,-70.3 -11.97,-32.23 -24.33,-32.54 -26.03,-73.21zm-474.29 97.33c-22.45,-10.54 -21.74,-28.61 -12.91,-95.68 6.9,-0.32 68.27,-1.79 74.76,1.6 18.45,9.61 21.45,39.72 18.21,62.86 -4.19,29.99 -7.39,22.62 -12.33,30.4l-8.26 -14.57c-11.97,-44 4.43,-30.2 -17.14,-60.05l-25.43 1.42c-10.32,30.09 -0.85,52.33 -16.9,74.02zm-347.14 -25.55c19.77,8.56 2.71,10.61 26.02,2.98 31.18,-10.21 -16.96,-4.26 35.31,-12.75 -21.34,85.01 -117.51,19.25 -87.28,-38.76 8.68,-16.66 80.32,-61.25 91.83,30.92 -32.37,-10.58 -10.24,-0.15 -24.28,-13.22 -12.2,-11.37 -1.65,-20.46 -42.19,-18.63 -0.89,6.96 -0.96,42.75 0.59,49.46zm1390.01 -105.68c59.67,1.22 24.83,51.68 76.98,93.22 25.36,-67.16 25.68,-85.75 57.01,-93.62 13.48,25.52 -16.24,78.8 -36.55,121.82 -14.97,31.7 -8.04,22.43 -31.18,30.74 -23.35,-18.71 -68.21,-118.5 -66.26,-152.16zm929.67 31.75c10.23,42.58 44.28,20.78 81.14,61.71 7,87.07 -122.14,80.45 -119.29,19.06 47.91,-6.42 47.23,44.55 88.79,3.89 -10.36,-25.57 -7.81,-18.98 -36.7,-29.02 -21.43,-7.45 -31.81,-13.11 -44.98,-23.15l-3.97 -43.58c37.05,-32.09 116,-45.7 107.62,15.46 -36.65,-2.23 -31.2,-30.21 -72.61,-4.37zm-443.14 42.33c14.31,33.56 34.17,44.39 36.13,53.36 14.71,67.3 -64.62,-17.97 -68.11,-19.64 -21.07,29.39 -15.56,42.16 -57.5,43.22 2.93,-34.32 18.9,-48.85 37.86,-68.47 -12.11,-37.46 -39.23,-40.75 -37.78,-82.92 48.01,1.76 23.32,17.43 67.06,41.89 21.71,-21.45 22.75,-39.85 57.88,-41.11 1.81,44.44 -17.87,28.83 -35.54,73.67zm-7007.94 -3832.92l512.53 -0.98 1.78 -2416.42 11486.12 -3.49 1.71 2419.07 516.5 1.2 0.99 933.22 -516.46 2.96c-15.1,393.69 -1.1,816 -1.1,1212.5l-0.05 905.93c0,345.12 57.66,301.95 -173.49,301.44 -3649.3,-8.02 -7305.62,-0.72 -10955.86,-0.08 -90.53,0.01 -278.14,10.34 -357.16,-3.29l-1.62 -2416.35 -511.01 -0.44 -2.88 -935.27zm-515.86 4163.12l13546.66 0 0 -7399.86 -13546.66 0 0 7399.86z"/>
   <g>
    <path class="fil1" d="M11648.76 6508.45c-61.45,-25.18 -141.83,-42.08 -207.73,-67.13 -455.48,-173.16 -810.65,-458.43 -1085.15,-870.26 -144.48,-216.76 -257.87,-488.46 -319.28,-798.22 -61.78,-311.6 -37.66,-740.67 -37.66,-1075.32 0,-350.02 -21.83,-752.57 37.51,-1083.48 123.89,-690.86 592.56,-1286.39 1202.91,-1583.1 68.39,-33.25 121.06,-55.2 195.2,-84.5 50.48,-19.95 163.74,-47.16 200.97,-68.32 -38.75,-17.48 -2172.13,-5.19 -2420.07,-5.19 -78.56,0 -2337.78,-7.06 -2419.48,2.28l2.55 5636.45c87.59,8.64 209.01,1.87 300.27,1.87 564.99,0 4513.62,8.93 4549.96,-5.08z"/>
    <path class="fil1" d="M1884.3 873.29c32.66,22.73 48.97,21.07 101.29,37.72 486.65,154.89 916.97,487.93 1187.21,912.63 389.61,612.29 352.32,1049.7 352.32,1882.34 0,344.61 22.47,754.23 -40.66,1076.2 -154.5,787.9 -679.01,1378.3 -1411.2,1661.68 -30.14,11.66 -196.53,62.43 -201.35,69.65l4854.1 -1.13 -3.6 -5639.45 -4838.11 0.36z"/>
    <path class="fil0" d="M2464.52 3516.09l59.16 -0.75c13.26,42.1 13.29,314.71 -0.66,355.96l-61.83 -1.61 3.33 -353.6zm-1376.91 2240.33c671,24.72 1024.73,-188.76 1325.35,-538.53 123,-143.11 252.8,-395.45 296.98,-634.09 47.65,-257.34 26.42,-618.69 26.42,-894.75 0,-277.12 22,-644.44 -29.2,-900.63 -69.18,-346.08 -273.31,-653.13 -533.36,-854.52 -339.21,-262.7 -641.5,-311.03 -1087.15,-304.92l0.96 4127.44z"/>
    <path class="fil0" d="M10994.25 3867.24c-1.99,-65.83 -8.86,-301.14 4.05,-351.69l62.13 0.61 0.11 352.47 -66.29 -1.39zm1440.52 -2238.17c-315.17,-4.58 -549.89,9.69 -803.26,132.73 -427.91,207.78 -723.03,568.38 -818.92,1044.09 -49.19,244.08 -27.25,624.12 -27.25,891.63 0,579.29 -57.32,1070.12 327.42,1523.31 358.45,422.23 749.16,550.86 1322.62,535.89l-0.61 -4127.65z"/>
    <path class="fil2" d="M12434.77 1629.07l0.61 4127.65c-573.46,14.97 -964.17,-113.66 -1322.62,-535.89 -384.74,-453.19 -327.42,-944.02 -327.42,-1523.31 0,-267.51 -21.94,-647.55 27.25,-891.63 95.89,-475.71 391.01,-836.31 818.92,-1044.09 253.37,-123.04 488.09,-137.31 803.26,-132.73zm-11347.16 4127.35l-0.96 -4127.44c445.65,-6.11 747.94,42.22 1087.15,304.92 260.05,201.39 464.18,508.44 533.36,854.52 51.2,256.19 29.2,623.51 29.2,900.63 0,276.06 21.23,637.41 -26.42,894.75 -44.18,238.64 -173.98,490.98 -296.98,634.09 -300.62,349.77 -654.35,563.25 -1325.35,538.53zm11772.55 -1760.08l89.42 -4.64 0.91 87.46 -90.76 -1.31 0.43 -81.51zm-116.56 -3.7l87.47 -0.64 0.24 87.16 -85.7 0.19 -2.01 -86.71zm-116.11 0.96l86.87 -1.39 0.44 86.54 -85.72 -0.08 -1.59 -85.07zm-122.45 -1.12l95.86 0.2 0.18 85.67 -93.43 0.87 -2.61 -86.74zm-11579.46 1.04l91.87 -0.62 0.37 83.46 -90.54 2.74 -1.7 -85.58zm-115.41 1.37l85.72 -3.33 0.2 87.3 -85.56 -0.67 -0.36 -83.3zm-114.96 -2.66l86.35 0.61 -0.24 84.17 -83.98 2.21 -2.13 -86.99zm-124.46 1.85l93.88 -2.33 0.46 87.33 -92.56 -0.51 -1.78 -84.49zm12284.78 -116.88c35.86,-8.25 67.68,-11.52 96.61,4.2l2.67 82.03c-30.9,13.56 -64.18,11.61 -95.28,1.6l-4 -87.83zm-227.42 1.67l86.67 0.11 1.55 83.93 -84.78 2.89 -3.44 -86.93zm-123.91 1.57l94.56 -2.66 1.72 87.64 -94.96 -0.19 -1.32 -84.79zm-11577.91 -2.08l89.88 0.14 1.58 86.48 -88.23 0.82 -3.23 -87.44zm-115.92 1.33l86.42 -1.08 1.81 85.41 -86.16 1.49 -2.07 -85.82zm-118.79 0.75l90.27 -5.98 3.68 93.91 -91.37 -0.85 -2.58 -87.08zm-120.51 -2.03l90.62 -0.33 3.17 87.45 -90.43 -0.21 -3.36 -86.91zm12174.17 -0.23l83.49 -0.49 3.79 86.21 -88.99 0.5 1.71 -86.22zm115 -109.24l90.89 -6.65 -1 86.73 -89.06 -0.81 -0.83 -79.27zm-116.99 -5.16l88.95 -0.33 -1.61 86.06 -84.41 0.26 -2.93 -85.99zm-115.68 1.86l88.24 -0.46 0.92 80.6 -87.18 4.05 -1.98 -84.19zm-123.15 -2.04l96.54 0.5 -0.37 83.83 -92.63 2.47 -3.54 -86.8zm-11579.72 0.42l93.7 0.38 -0.32 83.5 -90.75 2.05 -2.63 -85.93zm-115.34 1.97l89.45 -1.32 -0.01 82.72 -88.07 2.15 -1.37 -83.55zm-114.33 -2.36l86.89 0.54 -0.42 84.69 -84.55 1.86 -1.92 -87.09zm-124.49 1.6l94.99 -2.01 -0.8 85.8 -92.72 0.8 -1.47 -84.59zm12285.23 -115.61c34.67,-10.23 66.99,-12.2 96.62,1.94l2.19 83.4c-28.79,11.51 -65.54,10.28 -94.58,1.5l-4.23 -86.84zm-227.39 0.56l86.51 0.39 1.17 83.75 -85.42 2.77 -2.26 -86.91zm-124.35 1.53l94.1 -2.51 1.94 86.35 -94.29 0.66 -1.75 -84.5zm-11578.09 -1.85l89.44 0.02 2.25 85.82 -87.89 0.86 -3.8 -86.7zm-118.92 -1.6l92.15 -1.97 3.03 90.58 -92.54 2.62 -2.64 -91.23zm-112.91 4.5l84.89 -3.7 1.68 86.21 -85.14 0.86 -1.43 -83.37zm-122.92 -2.5l90.51 -0.92 2.69 87.42 -89.58 -0.62 -3.62 -85.88zm12172.28 1.4l87.76 -0.62 0.99 83.74 -88.08 0.69 -0.67 -83.81zm116.81 -111.7l88.62 -4.5 2.17 86.55 -90.64 -1.2 -0.15 -80.85zm-115.94 -3.51l86.03 -0.52 1.39 86.17 -87.61 0.69 0.19 -86.34zm-116.03 1.69l87.47 -0.54 0.67 79.82 -88.04 5.5 -0.1 -84.78zm-122.2 -1.83l93.42 0.3 1.75 84.2 -95.48 2.38 0.31 -86.88zm-11580.02 0.61l91.59 -0.29 0.59 83.15 -92.31 3.62 0.13 -86.48zm-115.62 1.59l87.68 -1.51 0.81 82.12 -88.36 3.15 -0.13 -83.76zm-114.64 -2.53l84.48 0.72 1.58 84.4 -86.04 2.15 -0.02 -87.27zm-124.64 1.73l92.14 -1.82 2.35 86.52 -94.41 -0.06 -0.08 -84.64zm12289.07 -114.54l87.4 -3.27 2.41 87.98 -88 -0.86 -1.81 -83.85zm-117.61 1.17l85.93 -4.97 2.3 88.75 -86.78 -0.97 -1.45 -82.81zm-114.56 -3.17l87.05 -0.05 1.01 85.32 -85.76 1.89 -2.3 -87.16zm-124.24 1.64l94.61 -2.75 1.84 87.88 -94.71 -0.33 -1.74 -84.8zm-11577.52 -1.75l89.5 -0.07 1.84 86.27 -88.83 1.2 -2.51 -87.4zm-119.8 -2.08l93.65 -2.47 1.58 92.19 -92.84 2.55 -2.39 -92.27zm-115.14 2.24l91.48 -5.31 2.47 94.34 -91.25 -0.04 -2.7 -88.99zm-119.99 -0.31l90.44 -0.93 2.67 87.72 -90.8 0.46 -2.31 -87.25zm12289.94 -112.95l87.81 -0.48 1.63 86.02 -87.92 0.4 -1.52 -85.94zm-117.42 -0.46l85.81 -0.02 2.32 85.66 -86.88 0.87 -1.25 -86.51zm-116.14 1.43l86.03 -1.73 1.3 85.68 -86 0.37 -1.33 -84.32zm-123.88 2.6l96.53 -4.41 0.53 85.56 -96.47 -0.3 -0.59 -80.85zm-11577.42 -2.77l90.92 -0.76 0.9 83.45 -90.91 2.49 -0.91 -85.18zm-116.61 0.92l87.9 -1.35 1.08 81.91 -87.91 3.32 -1.07 -83.88zm-114.36 -1.99l85.09 0.22 0.88 84.33 -84.35 1.82 -1.62 -86.37zm-124.69 1.51l92.41 -2.19 2.42 86.85 -93.09 -0.62 -1.74 -84.04zm11863.94 2518.97l0.5 683.04c-442.66,11.26 -751.76,-32.99 -1102.24,-189.39 -588.8,-262.74 -1014.47,-777.42 -1191.58,-1399.45 -103.01,-361.76 -73.58,-822.41 -73.58,-1224.85 0,-396.39 -29.27,-873.7 71.59,-1226.62 98.88,-345.98 260.55,-633.43 448.12,-847.34 398.29,-454.22 966.28,-784.48 1846.7,-748.51l0.96 681.34c-328,18.5 -483.37,-15.93 -821.32,137.04 -107.33,48.58 -218.16,115.3 -301.64,180.8 -87.27,68.48 -180.33,152.19 -246,236.41 -391.48,502.12 -347.6,817.58 -347.6,1578.41 0,770.1 -47.81,1065.54 344.64,1581.25 128.19,168.44 355.3,333.48 545.07,420.39 286.62,131.27 486.05,135.05 826.38,137.48zm-11347.85 -4955.08c790.12,-13.3 1340.6,190.76 1842.99,745.22 330.06,364.26 525.61,887.19 525.09,1418.81 -0.21,217.3 -0.02,434.62 -0.02,651.93 0,415.11 29.63,839.46 -70.35,1222.07 -170.35,651.86 -606.76,1123.38 -1184.67,1405.22 -314.17,153.22 -707.2,211.93 -1113.04,194.75l-0.33 -682.81c340.86,-3.74 544.1,-6.44 820.21,-134.14 230.34,-106.54 408.7,-250.9 548.12,-417.62 156.78,-187.48 242.16,-367.85 316,-650.33 59.57,-227.89 35.07,-671.2 35.07,-928.67 0,-619.11 58.9,-1096.39 -346.74,-1583.39 -133.51,-160.29 -319.67,-317.14 -546.13,-418.88 -324.74,-145.89 -491.97,-128.9 -826.04,-137.96l-0.16 -684.2zm10561.85 5635.36c-36.34,14.01 -3984.97,5.08 -4549.96,5.08 -91.26,0 -212.68,6.77 -300.27,-1.87l-2.55 -5636.45c81.7,-9.34 2340.92,-2.28 2419.48,-2.28 247.94,0 2381.32,-12.29 2420.07,5.19 -37.23,21.16 -150.49,48.37 -200.97,68.32 -74.14,29.3 -126.81,51.25 -195.2,84.5 -610.35,296.71 -1079.02,892.24 -1202.91,1583.1 -59.34,330.91 -37.51,733.46 -37.51,1083.48 0,334.65 -24.12,763.72 37.66,1075.32 61.41,309.76 174.8,581.46 319.28,798.22 274.5,411.83 629.67,697.1 1085.15,870.26 65.9,25.05 146.28,41.95 207.73,67.13zm-9764.46 -5635.16l4838.11 -0.36 3.6 5639.45 -4854.1 1.13c4.82,-7.22 171.21,-57.99 201.35,-69.65 732.19,-283.38 1256.7,-873.78 1411.2,-1661.68 63.13,-321.97 40.66,-731.59 40.66,-1076.2 0,-832.64 37.29,-1270.05 -352.32,-1882.34 -270.24,-424.7 -700.56,-757.74 -1187.21,-912.63 -52.32,-16.65 -68.63,-14.99 -101.29,-37.72zm-1378.76 3287.84l511.01 0.44 1.62 2416.35c79.02,13.63 266.63,3.3 357.16,3.29 3650.24,-0.64 7306.56,-7.94 10955.86,0.08 231.15,0.51 173.49,43.68 173.49,-301.44l0.05 -905.93c0,-396.5 -14,-818.81 1.1,-1212.5l516.46 -2.96 -0.99 -933.22 -516.5 -1.2 -1.71 -2419.07 -11486.12 3.49 -1.78 2416.42 -512.53 0.98 2.88 935.27z"/>
    <path class="fil1" d="M10397.34 3454.06l68.62 1.37 -1.22 477.92 -68.02 -3.34 0.62 -475.95zm2037.42 2374.11c-340.33,-2.43 -539.76,-6.21 -826.38,-137.48 -189.77,-86.91 -416.88,-251.95 -545.07,-420.39 -392.45,-515.71 -344.64,-811.15 -344.64,-1581.25 0,-760.83 -43.88,-1076.29 347.6,-1578.41 65.67,-84.22 158.73,-167.93 246,-236.41 83.48,-65.5 194.31,-132.22 301.64,-180.8 337.95,-152.97 493.32,-118.54 821.32,-137.04l-0.96 -681.34c-880.42,-35.97 -1448.41,294.29 -1846.7,748.51 -187.57,213.91 -349.24,501.36 -448.12,847.34 -100.86,352.92 -71.59,830.23 -71.59,1226.62 0,402.44 -29.43,863.09 73.58,1224.85 177.11,622.03 602.78,1136.71 1191.58,1399.45 350.48,156.4 659.58,200.65 1102.24,189.39l-0.5 -683.04z"/>
    <path class="fil1" d="M3055.69 3456.46l69.47 -4.36 1.32 480.7 -70.11 -0.28 -0.68 -476.06zm-1968.62 -1899.17c334.07,9.06 501.3,-7.93 826.04,137.96 226.46,101.74 412.62,258.59 546.13,418.88 405.64,487 346.74,964.28 346.74,1583.39 0,257.47 24.5,700.78 -35.07,928.67 -73.84,282.48 -159.22,462.85 -316,650.33 -139.42,166.72 -317.78,311.08 -548.12,417.62 -276.11,127.7 -479.35,130.4 -820.21,134.14l0.33 682.81c405.84,17.18 798.87,-41.53 1113.04,-194.75 577.91,-281.84 1014.32,-753.36 1184.67,-1405.22 99.98,-382.61 70.35,-806.96 70.35,-1222.07 0,-217.31 -0.19,-434.63 0.02,-651.93 0.52,-531.62 -195.03,-1054.55 -525.09,-1418.81 -502.39,-554.46 -1052.87,-758.52 -1842.99,-745.22l0.16 684.2z"/>
    <path class="fil3" d="M6817.49 7090.63c17.37,-70.57 -14.01,-1.48 -8.76,-136.07 26.21,14.31 96.68,82.96 107.29,112.69 -12.89,32.51 -93.87,112.73 -122.02,124.2 -45.87,-9.01 -39.25,-27.23 -69.72,-54.27 -80.33,-71.29 -78.65,-67.49 -13.2,-135.85 20.2,-21.09 29.12,-35.79 59.7,-48.81 5.13,110.86 -10.12,72.04 -15.25,108.88 -5.85,42 33.8,42.49 61.96,29.23zm-188.56 -14.92c4.96,33.03 48.85,68.99 68.49,88.15 86.79,84.72 98.39,87.72 190.67,-2.61 88.2,-86.34 85.2,-105.28 -8.27,-196.93 -24.03,-23.56 -52.33,-65.14 -102.28,-58.83 -34.01,4.3 -70.27,51.28 -91.15,71.12 -20.44,19.41 -64.23,54.12 -57.46,99.1z"/>
    <polygon class="fil2" points="3056.37,3932.52 3126.48,3932.8 3125.16,3452.1 3055.69,3456.46 "/>
    <polygon class="fil2" points="10396.72,3930.01 10464.74,3933.35 10465.96,3455.43 10397.34,3454.06 "/>
    <path class="fil3" d="M6817.49 7090.63c-28.16,13.26 -67.81,12.77 -61.96,-29.23 5.13,-36.84 20.38,1.98 15.25,-108.88 -30.58,13.02 -39.5,27.72 -59.7,48.81 -65.45,68.36 -67.13,64.56 13.2,135.85 30.47,27.04 23.85,45.26 69.72,54.27 28.15,-11.47 109.13,-91.69 122.02,-124.2 -10.61,-29.73 -81.08,-98.38 -107.29,-112.69 -5.25,134.59 26.13,65.5 8.76,136.07z"/>
    <path class="fil2" d="M2461.19 3869.69l61.83 1.61c13.95,-41.25 13.92,-313.86 0.66,-355.96l-59.16 0.75 -3.33 353.6z"/>
    <path class="fil2" d="M10994.25 3867.24l66.29 1.39 -0.11 -352.47 -62.13 -0.61c-12.91,50.55 -6.04,285.86 -4.05,351.69z"/>
    <path class="fil3" d="M7636.5 7044.76c13.54,-51.83 60.21,-48.49 76.12,-0.2l-76.12 0.2zm1.22 27.91l109.91 -7.59c6.91,-104.69 -126.65,-115.24 -145.21,-29.18 -14.42,66.85 28.81,116.34 95.44,105.34 32.74,-5.41 30.98,-8.04 39.19,-31.66 -9.31,-4.52 -3.19,-5.73 -18.54,-6.04 -21.76,-0.45 -12.18,10.51 -62.27,4.85l-18.52 -35.72z"/>
    <path class="fil3" d="M7255.68 7044.79c9.46,-44.62 58.15,-54.64 76.35,0.35l-76.35 -0.35zm101.45 64.79c-34.74,-17.14 -32.3,8.49 -70.9,-0.7 -19.61,-4.67 -27.95,-12.47 -29.3,-36.03l109.91 -8.21c6.91,-102.87 -126.98,-114.96 -145.26,-28.07 -20.26,96.36 103.76,147.8 135.55,73.01z"/>
    <path class="fil3" d="M7510.6 7058.78c17.67,-44.84 37.35,-29.23 35.54,-73.67 -35.13,1.26 -36.17,19.66 -57.88,41.11 -43.74,-24.46 -19.05,-40.13 -67.06,-41.89 -1.45,42.17 25.67,45.46 37.78,82.92 -18.96,19.62 -34.93,34.15 -37.86,68.47 41.94,-1.06 36.43,-13.83 57.5,-43.22 3.49,1.67 82.82,86.94 68.11,19.64 -1.96,-8.97 -21.82,-19.8 -36.13,-53.36z"/>
    <path class="fil3" d="M7953.74 7016.45c41.41,-25.84 35.96,2.14 72.61,4.37 8.38,-61.16 -70.57,-47.55 -107.62,-15.46l3.97 43.58c13.17,10.04 23.55,15.7 44.98,23.15 28.89,10.04 26.34,3.45 36.7,29.02 -41.56,40.66 -40.88,-10.31 -88.79,-3.89 -2.85,61.39 126.29,68.01 119.29,-19.06 -36.86,-40.93 -70.91,-19.13 -81.14,-61.71z"/>
    <path class="fil3" d="M7101.05 7077.92c-52.15,-41.54 -17.31,-92 -76.98,-93.22 -1.95,33.66 42.91,133.45 66.26,152.16 23.14,-8.31 16.21,0.96 31.18,-30.74 20.31,-43.02 50.03,-96.3 36.55,-121.82 -31.33,7.87 -31.65,26.46 -57.01,93.62z"/>
    <path class="fil3" d="M5876.95 7087.14c-12.18,-40.81 -4.77,-49.15 35.83,-44.06 15.35,36.16 8.64,63.83 -35.83,44.06zm-19.44 16.28c19.94,21.2 33.82,18.7 64.27,5.75 -9.87,51.59 -36.09,21.68 -70.14,16.71 16.51,54.34 118.04,87.04 92.11,-106.83 -55.85,4.15 -49.53,-6.66 -77.93,4.98 -15.58,24.25 -19,45.48 -8.31,79.39z"/>
    <polygon class="fil0" points="12505.59,3507.61 12600.3,3507.94 12598.46,3420.06 12503.85,3422.81 "/>
    <polygon class="fil0" points="12505.52,3965.23 12600.48,3965.42 12598.76,3877.78 12504.2,3880.44 "/>
    <polygon class="fil0" points="12507.65,4079.22 12601.08,4078.35 12600.9,3992.68 12505.04,3992.48 "/>
    <polygon class="fil0" points="12505.8,3623.19 12601.28,3620.81 12599.53,3536.61 12506.11,3536.31 "/>
    <polygon class="fil0" points="12507.96,3850.4 12600.59,3847.93 12600.96,3764.1 12504.42,3763.6 "/>
    <polygon class="fil0" points="12505.78,3736.21 12600.07,3735.55 12598.13,3649.2 12504.03,3651.71 "/>
    <polygon class="fil0" points="12504.49,3392.38 12600.96,3392.68 12600.43,3307.12 12503.9,3311.53 "/>
    <polygon class="fil0" points="572.53,4078.57 665.09,4079.08 664.63,3991.75 570.75,3994.08 "/>
    <polygon class="fil0" points="572.01,3849.82 664.73,3849.02 665.53,3763.22 570.54,3765.23 "/>
    <polygon class="fil0" points="571.27,3622.35 665.68,3622.41 663.33,3535.89 571.19,3537.71 "/>
    <polygon class="fil0" points="573.71,3508.16 664.51,3507.7 661.84,3419.98 571.4,3420.91 "/>
    <polygon class="fil0" points="572.56,3393.24 665.65,3393.86 663.23,3307.01 570.82,3309.2 "/>
    <polygon class="fil0" points="574.43,3965.32 664.86,3965.53 661.69,3878.08 571.07,3878.41 "/>
    <path class="fil3" d="M6215.31 7048.18c13.06,-6.68 -18.66,-12.13 19.95,-7.13 32.55,4.21 25.02,23.91 18.19,45.23l-39.77 5.9c-7.37,-34.03 -8.72,-20.52 1.63,-44zm-26.15 -19.86c-8.96,48.47 -15.71,53.83 17.95,89.63l75.4 -3.79c5.35,-39.39 9.85,-102.16 -5.55,-129.05 -24.29,11.63 -16.65,40.03 -25.39,31.75l-62.41 11.46z"/>
    <polygon class="fil0" points="927.33,3849.95 1018.08,3847.9 1018.4,3764.4 924.7,3764.02 "/>
    <polygon class="fil0" points="574.81,3736.14 664.39,3736.76 661.7,3649.34 571.19,3650.26 "/>
    <polygon class="fil0" points="925.96,3623.4 1018.27,3619.78 1017.68,3536.63 926.09,3536.92 "/>
    <path class="fil3" d="M5778.75 7034.6l0.62 12.54c-38.15,-19.53 -26.81,-23.96 -48.72,9.77l53.66 16.19 -3.71 34.47c32.76,9.02 7.37,-3.64 42.76,17.66l11.25 -29.21 22.9 7.4c-10.69,-33.91 -7.27,-55.14 8.31,-79.39l-45.49 -15.44c-37.77,35.86 0.46,18.16 -41.58,26.01z"/>
    <polygon class="fil0" points="929.52,3965.8 1017.75,3964.98 1016.17,3878.5 926.29,3878.36 "/>
    <polygon class="fil0" points="928.84,3508.46 1017.67,3507.26 1015.83,3420.99 926.33,3421.06 "/>
    <polygon class="fil0" points="927.28,4079.1 1017.82,4076.36 1017.45,3992.9 925.58,3993.52 "/>
    <polygon class="fil0" points="927.39,3393.94 1018.3,3391.45 1017.4,3308 926.48,3308.76 "/>
    <polygon class="fil0" points="929.74,3736.56 1017.63,3735.7 1015.38,3649.88 925.94,3649.86 "/>
    <polygon class="fil0" points="12859.73,4077.85 12950.49,4079.16 12949.58,3991.7 12860.16,3996.34 "/>
    <polygon class="fil0" points="12862.86,3393.9 12950.78,3393.5 12949.15,3307.48 12861.34,3307.96 "/>
    <path class="fil3" d="M6416.31 7042.79l-2.77 49.3c-34.47,3.06 -54.79,-6.85 -35.53,-43.44 23.13,-13.02 1.71,-9.49 38.3,-5.86zm-12.05 74.61c23.93,-1.52 35.91,-12.06 40.61,-36.19 10.65,-54.62 -28.48,-69.87 -73.32,-57.41 -5.54,-43.4 2.79,-22.07 -17.82,-37.13l-9.65 63.67c0.1,24.74 -0.32,40.35 3.05,65.19l57.13 1.87z"/>
    <polygon class="fil0" points="12862.07,3507.02 12950.07,3507.88 12947.66,3419.9 12860.26,3423.17 "/>
    <polygon class="fil0" points="12745.61,4079.35 12831.31,4079.16 12831.07,3992 12743.6,3992.64 "/>
    <polygon class="fil0" points="12860.43,3620.81 12951.07,3622.01 12948.9,3535.46 12860.28,3539.96 "/>
    <polygon class="fil0" points="12744.15,3622.79 12831.76,3622.1 12830.37,3535.93 12744.34,3536.45 "/>
    <polygon class="fil0" points="12861.07,3848.21 12950.13,3849.02 12951.13,3762.29 12860.24,3768.94 "/>
    <polygon class="fil0" points="12746.18,3849.77 12830.59,3849.51 12832.2,3763.45 12743.25,3763.78 "/>
    <polygon class="fil0" points="12630.39,3508.33 12716.15,3506.44 12715.14,3421.12 12628.09,3421.17 "/>
    <polygon class="fil0" points="12743.53,3964.4 12832.52,3963.9 12828.73,3877.69 12745.24,3878.18 "/>
    <polygon class="fil0" points="12745.17,3394.01 12832.05,3393.14 12829.73,3307.48 12743.92,3307.5 "/>
    <polygon class="fil0" points="12744.1,3507.15 12830.88,3508.12 12828.58,3419.37 12742.65,3424.34 "/>
    <polygon class="fil0" points="12629.08,4078.67 12714.8,4078.75 12714.36,3992.21 12627.49,3993.6 "/>
    <polygon class="fil0" points="812.44,3965.51 898.6,3964.02 896.79,3878.61 810.37,3879.69 "/>
    <polygon class="fil0" points="810.73,3849.54 898.8,3847.39 898.81,3764.67 809.36,3765.99 "/>
    <polygon class="fil0" points="12744.14,3735.47 12832.22,3734.78 12831.23,3651.04 12743.47,3651.66 "/>
    <polygon class="fil0" points="696.95,3850.72 781.5,3848.86 781.92,3764.17 695.03,3763.63 "/>
    <polygon class="fil0" points="12630.64,3737.09 12716.06,3734.32 12714.89,3650.57 12628.38,3650.18 "/>
    <polygon class="fil0" points="12631.55,3965.8 12716.33,3962.91 12714.78,3878.98 12628.11,3878.87 "/>
    <polygon class="fil0" points="695.85,3623.25 781.89,3621.1 780.31,3536.7 695.83,3535.98 "/>
    <polygon class="fil0" points="12629.11,3393.25 12715.11,3392.88 12713.81,3307.2 12627.78,3308.93 "/>
    <polygon class="fil0" points="810.53,4078.19 896.09,4078.86 895.89,3991.56 810.17,3994.89 "/>
    <polygon class="fil0" points="810.6,3622.27 898.96,3619.12 898.15,3537 810.47,3538.51 "/>
    <path class="fil3" d="M5549.4 7094.71c-50.68,-2.42 -52.96,-40.67 -8.47,-55.84 29.72,21 29.14,28.45 8.47,55.84zm-42.34 -70.22c-61.95,66.65 12.2,111.67 79.32,85.09 3.57,-37.04 11.55,-92.51 -11.58,-122.54l-14.5 41.28c-17.3,-14.33 -27.17,-10.21 -53.24,-3.83z"/>
    <polygon class="fil0" points="810.94,3393.56 898.85,3390.24 897.77,3308.33 809.87,3309.68 "/>
    <polygon class="fil0" points="697.34,4079.22 781.32,4077.01 781.56,3992.84 695.21,3992.23 "/>
    <polygon class="fil0" points="697.13,3394.06 781.48,3392.24 780.6,3307.91 695.51,3307.69 "/>
    <polygon class="fil0" points="12629.55,3849.83 12716.73,3845.78 12715.81,3765.18 12627.57,3765.64 "/>
    <polygon class="fil0" points="12628.41,3622.92 12716.45,3617.42 12715.78,3537.6 12628.31,3538.14 "/>
    <polygon class="fil0" points="695.54,3736.13 780.68,3735.27 779,3649.06 694.11,3652.76 "/>
    <path class="fil3" d="M7835.4 6921.04c-24.42,11.93 -9.4,-10.63 -19.87,18.94l-0.58 93.4c0.68,96.98 -11.51,88.12 20.45,103.63 21.62,-26.58 13.41,-58.57 13.48,-112.1 0.06,-46.15 7.23,-77.15 -13.48,-103.87z"/>
    <polygon class="fil0" points="12865.89,3731.33 12945.8,3730.93 12944.17,3654.8 12864.6,3654.47 "/>
    <polygon class="fil0" points="12865.1,3958.42 12944.5,3960.16 12945.01,3883.97 12866.28,3882.11 "/>
    <path class="fil3" d="M6506.1 7076.3c-22,-28.08 -12.51,-51.75 -50.61,-57.7 1.7,40.67 14.06,40.98 26.03,73.21 16.73,45.05 -13.09,38.13 -0.79,70.3 30.43,-12.12 15.86,-5.84 43.4,-68.66 29.71,-67.76 30.23,-54.72 15.87,-75.14 -25.26,12.14 -26.81,33.12 -33.9,57.99z"/>
    <polygon class="fil0" points="814.03,3729.42 891.52,3728.67 891.95,3656.16 817.73,3656.72 "/>
    <path class="fil3" d="M5981.2 7115.93c16.05,-21.69 6.58,-43.93 16.9,-74.02l25.43 -1.42c21.57,29.85 5.17,16.05 17.14,60.05l8.26 14.57c4.94,-7.78 8.14,-0.41 12.33,-30.4 3.24,-23.14 0.24,-53.25 -18.21,-62.86 -6.49,-3.39 -67.86,-1.92 -74.76,-1.6 -8.83,67.07 -9.54,85.14 12.91,95.68z"/>
    <path class="fil3" d="M5634.06 7090.38c-1.55,-6.71 -1.48,-42.5 -0.59,-49.46 40.54,-1.83 29.99,7.26 42.19,18.63 14.04,13.07 -8.09,2.64 24.28,13.22 -11.51,-92.17 -83.15,-47.58 -91.83,-30.92 -30.23,58.01 65.94,123.77 87.28,38.76 -52.27,8.49 -4.13,2.54 -35.31,12.75 -23.31,7.63 -6.25,5.58 -26.02,-2.98z"/>
    <polygon class="fil0" points="816.18,3500.73 888.86,3500.37 891.62,3427.52 816.77,3427.83 "/>
    <polygon class="fil0" points="704.62,3500.21 774.94,3501.54 777.15,3426.95 703.33,3426.86 "/>
    <polygon class="fil0" points="703.96,3957.25 776.95,3958.58 777.43,3884.11 704.38,3885.7 "/>
    <path class="fil3" d="M6161.14 7109.54c6.26,-46.77 7.35,-16.46 -14.72,-27.51 -41.34,48.35 -47.41,-8.71 -46.62,-47.18 30.66,0.64 31.85,-9.35 48.05,20.91l25.73 16.32c-15.4,-84.54 -95.94,-62.99 -97.22,-4.99 -1.51,67.9 63.53,46.2 84.78,42.45z"/>
    <path class="fil3" d="M5780.6 7107.57l3.71 -34.47 -53.66 -16.19c21.91,-33.73 10.57,-29.3 48.72,-9.77l-0.62 -12.54c-5.55,-10.5 -3.2,-7.78 -11.35,-17.07l-49.5 7.03c-9.53,73.99 22.58,27.44 48.1,68.09 -22.93,10.71 -19.45,-0.98 -50.64,-9.63 12.06,52.59 49.28,39.52 65.24,24.55z"/>
    <path class="fil3" d="M6161.14 7109.54c7.57,-7.24 24.35,17.68 12.44,-37.46l-25.73 -16.32c-16.2,-30.26 -17.39,-20.27 -48.05,-20.91 -0.79,38.47 5.28,95.53 46.62,47.18 22.07,11.05 20.98,-19.26 14.72,27.51z"/>
    <path class="fil4" d="M12866.28 3882.11l78.73 1.86 -0.51 76.19 -79.4 -1.74 1.18 -76.31zm-6.75 82.92c31.1,10.01 64.38,11.96 95.28,-1.6l-2.67 -82.03c-28.93,-15.72 -60.75,-12.45 -96.61,-4.2l4 87.83z"/>
    <path class="fil5" d="M816.77 3427.83l74.85 -0.31 -2.76 72.85 -72.68 0.36 0.59 -72.9zm-7.85 83.42l92.84 -2.55 -1.58 -92.19 -93.65 2.47 2.39 92.27z"/>
    <path class="fil4" d="M12864.6 3654.47l79.57 0.33 1.63 76.13 -79.91 0.4 -1.29 -76.86zm-4.6 81.99c29.04,8.78 65.79,10.01 94.58,-1.5l-2.19 -83.4c-29.63,-14.14 -61.95,-12.17 -96.62,-1.94l4.23 86.84z"/>
    <path class="fil5" d="M703.33 3426.86l73.82 0.09 -2.21 74.59 -70.32 -1.33 -1.29 -73.35zm-9.24 83.35l91.25 0.04 -2.47 -94.34 -91.48 5.31 2.7 88.99z"/>
    <path class="fil5" d="M704.38 3885.7l73.05 -1.59 -0.48 74.47 -72.99 -1.33 0.42 -71.55zm-10.22 81.82l91.37 0.85 -3.68 -93.91 -90.27 5.98 2.58 87.08z"/>
    <path class="fil5" d="M817.73 3656.72l74.22 -0.56 -0.43 72.51 -77.49 0.75 3.7 -72.7zm-8.07 82.77l92.54 -2.62 -3.03 -90.58 -92.15 1.97 2.64 91.23z"/>
    <path class="fil3" d="M5549.4 7094.71c20.67,-27.39 21.25,-34.84 -8.47,-55.84 -44.49,15.17 -42.21,53.42 8.47,55.84z"/>
    <path class="fil3" d="M5876.95 7087.14c44.47,19.77 51.18,-7.9 35.83,-44.06 -40.6,-5.09 -48.01,3.25 -35.83,44.06z"/>
    <path class="fil3" d="M6253.45 7086.28c6.83,-21.32 14.36,-41.02 -18.19,-45.23 -38.61,-5 -6.89,0.45 -19.95,7.13 -10.35,23.48 -9,9.97 -1.63,44l39.77 -5.9z"/>
    <path class="fil3" d="M7255.68 7044.79l76.35 0.35c-18.2,-54.99 -66.89,-44.97 -76.35,-0.35z"/>
    <path class="fil3" d="M7636.5 7044.76l76.12 -0.2c-15.91,-48.29 -62.58,-51.63 -76.12,0.2z"/>
    <path class="fil3" d="M6378.01 7048.65c-19.26,36.59 1.06,46.5 35.53,43.44l2.77 -49.3c-36.59,-3.63 -15.17,-7.16 -38.3,5.86z"/>
    <g>
     <path class="fil3" d="M5353.01 7010.7c65.77,-54.98 511.44,-376.14 538.04,-136.58 6.02,-0.39 10.96,-0.77 14.52,-1.17l1.73 16.2c75.34,4.64 140.16,21.39 158,63.21 69.47,-3.13 138.37,-4.31 205.19,4.46 18.79,0.04 35.94,0.17 50.59,0.04l0 8.75c14.19,3.1 28.27,6.75 42.22,11.04 37.04,-1.93 76.07,-3.71 115.3,-5.03 20.8,-4.8 43.7,-6.54 69.04,-6.68 40.5,-97.93 169.83,-80.88 320.49,-76.72l18.23 46.43c22.66,3.99 41.44,8.77 56.71,14.21 351.09,-32.49 949.12,-60.36 1127.82,-40.91l6.07 56.1c15.11,5.47 16.18,14.24 42.32,41.05 224.52,16.19 152.92,153.02 71.78,175.35 -249.05,68.51 -366.88,58.88 -405.89,19.75 -99.1,8 -204.17,12.56 -295.57,17.33 -79.15,28.03 -201.77,51.85 -288.91,5.17 -64.15,3.84 -114.94,6.64 -114.94,6.64 -39.71,2.84 -75.59,3.26 -107.47,1.66 -9.09,2.09 -18.63,4.32 -28.77,6.77l-1.7 -9.05c-47.88,-4.81 -84.53,-14.83 -108.82,-28.52l-0.61 0.03c-27.24,0.91 -52.81,2.35 -76.87,4.03 -6.27,9.25 -12.15,17.67 -17.02,24.8 26.65,1.29 51.75,2.19 72.69,2.72 16.13,-1.09 31.76,-1.45 45.76,0.46l0.44 -0.01 -0.28 0.03c6.64,0.92 12.92,2.36 18.68,4.47l-8.39 51.92c-93.94,17.19 -455,-1.83 -422.88,-72.21 -113.91,6.91 -214.75,7.78 -342.52,-13.57 -4.28,0.77 -8.69,1.61 -13.23,2.53l4.69 -2.84c-178.67,4.65 -410.18,1.78 -533.94,-45.31 -38.72,43.85 -103.71,57.38 -157.82,28.97 -63.57,-33.37 -88.05,-111.95 -54.68,-175.52zm1281.57 204.48c-5.63,1.74 -11.24,3.42 -16.82,5.07 23.59,2.31 49.48,4.3 75.48,5.95 5.08,-5.51 11.23,-11.48 17.98,-17.95 -27.68,2.4 -53.13,4.89 -76.64,6.93z"/>
    </g>
    <path class="fil6" d="M5468.11 7071.12c23.59,-44.93 467.91,-256.03 220.87,-105.71 -212.27,129.16 23.02,35.34 240.26,30.37 -76.5,14.74 -336.34,18.58 -338.42,39.68 78.86,62.73 599.47,40.07 730.26,40.07 -55.86,0 -243.47,-1.94 -282.36,27.97 6.97,11.09 656.97,-19.15 729.63,-19.15 -540.88,0 -253.79,16.26 67.28,8.06 510.28,-13.01 429.85,-53.12 85.3,45.99 47.86,-4.38 935.78,-65.87 405.95,-0.37 -247.08,30.54 54.67,-19.43 115.53,-24.95 207.15,-18.79 399.81,-28.73 601.36,-28.73 8.19,-24.56 -483.77,135.79 118.31,13.61 91.22,-18.52 -277.12,-2.34 -303.27,-4.79 247.89,-88.03 180.12,-16.2 -46.11,-44.48 377.84,-34.74 243.35,23.83 26.71,-45.23 134.22,-34.72 444.9,-13.43 -54.43,-28.59 -1.69,-0.06 -43.74,12.47 -421.57,12.47 -12.98,0 -663.37,42.66 -665.75,41.44 26.51,-55.41 166.85,-63.07 -99.15,-59.08 -73.16,1.1 466.09,-48.32 181.05,-19.53 -363.32,36.69 277.47,3.22 153.71,69.54 -217.65,116.64 -18.87,84.8 -351.64,170.47 -366.62,94.39 622.51,66.33 157.36,70.56 -100.26,0.91 81.47,-117.78 64.89,-156.23 -126.48,-37.25 -121.66,-6.25 48.89,10.71"/>
   </g>
  </g>
 </g>
</svg>
